<?xml version="1.0" encoding="utf-8"?>
<!-- Generator: Adobe Illustrator 22.1.0, SVG Export Plug-In . SVG Version: 6.00 Build 0)  -->
<svg version="1.1" id="Laag_1" xmlns="http://www.w3.org/2000/svg" xmlns:xlink="http://www.w3.org/1999/xlink" x="0px" y="0px"
	 viewBox="0 0 150 150" style="enable-background:new 0 0 150 150;" xml:space="preserve">
<style type="text/css">
	.st0{fill:#7B7B7B;}
	.st1{fill:none;}
</style>
<path class="st0" d="M135.4,61.5c-1.2-0.9-2.8-0.9-3.9,0L97.7,87.2l-22.1-50c-1-2.3-4.9-2.3-5.9,0L47.3,87.8L13.8,61.5
	c-1.1-0.9-2.8-0.9-3.9-0.1c-1.2,0.9-1.6,2.4-1.1,3.8l23.2,60c0.5,1.2,1.7,2.1,3.1,2.1h75.1c1.4,0,2.5-0.8,3-2.1l23.2-60
	C137,63.9,136.5,62.3,135.4,61.5L135.4,61.5z M108,120.8H37.3L19.2,74l27.4,21.5c0.8,0.6,1.8,0.8,2.8,0.6c1-0.3,1.8-0.9,2.2-1.8
	l21.1-47.7l20.8,47.1c0.4,0.9,1.2,1.6,2.2,1.8c1,0.2,2,0,2.8-0.6l27.8-21.2L108,120.8z M108,120.8"/>
<rect x="8.6" y="36.2" class="st1" width="130.2" height="91.4"/>
</svg>
