<?xml version="1.0" encoding="utf-8"?>
<!-- Generator: Adobe Illustrator 22.1.0, SVG Export Plug-In . SVG Version: 6.00 Build 0)  -->
<svg version="1.1" id="Laag_1" xmlns="http://www.w3.org/2000/svg" xmlns:xlink="http://www.w3.org/1999/xlink" x="0px" y="0px"
	 viewBox="0 0 150 150" style="enable-background:new 0 0 150 150;" xml:space="preserve">
<style type="text/css">
	.st0{fill:#787C82;}
</style>
<g>
	<path class="st0" d="M75.9,9.1c-37.8,0-68.7,31.2-68.7,69c0,37.5,30.7,68.5,68.7,68.5s68.7-30.9,68.7-68.5
		C144.7,40.3,113.7,9.1,75.9,9.1L75.9,9.1z M88,137.3c-3.9,0.8-8,1.2-12.1,1.2s-8.2-0.4-12.1-1.2v-18.8c0-4.5,1.2-6.1,2.8-8.3
		c0.8-0.9,1.3-1.8,5-7.3l-6.2-1c-15.9-2.3-22.2-10.6-24.7-17.1c-3.2-8.6-1.5-19.4,4.3-26.3c0.9-1,1.6-2.8,1-4.7
		c-1.2-3.7-1-9.6-0.2-11.8c4.3,0.6,8.7,3.7,12.3,5.9c1.7,1,2.6,0.7,3.4,0.8c2.9-0.6,7.5-2.1,14.6-2.1c4.3,0,8.9,0.6,13.4,1.9
		c0.8,0,2.1,0.7,4.3-0.6c3.8-2.3,8.1-5.3,12.3-5.9c0.8,2.3,1,8.1-0.2,11.8c-0.6,1.9,0.1,3.6,1,4.7c5.8,6.8,7.5,17.6,4.3,26.3
		c-2.5,6.4-8.8,14.7-24.7,17.1l-6.2,1c3.8,5.7,4.2,6.4,5,7.3c1.6,2.2,2.8,3.8,2.8,8.3v18.8H88z M96.1,135v-16.5c0-4.6-1-7.7-2.3-9.9
		c12.2-3.3,20.9-10.5,24.8-20.9c4.1-11,2.3-24-4.6-33c1.2-5.4,1.2-14-1.7-18c-1.3-1.8-3.1-2.7-5.3-2.7h0c-6.2,0.3-11.2,3.5-16.4,6.7
		c-4.8-1.3-9.7-1.9-14.7-1.9s-10,0.7-14.4,1.9C56,37.4,51.1,34.3,44.7,34c-2,0-3.8,1-5.1,2.7c-2.9,4-2.9,12.6-1.7,18
		c-6.8,9-8.7,22.1-4.6,33c3.9,10.4,12.6,17.6,24.8,20.9c-1,1.7-1.8,4-2.1,7.1c-2.5,0.9-4.6,1.1-6.6,0.5c-2.1-0.6-3.7-2-5.2-4.4
		c-3.2-5.4-8.6-9.8-14.8-9.2l0.7,8c2.9-0.3,5.7,2.8,7.2,5.3c2.4,4.1,5.7,6.8,9.8,8c3,0.9,5.8,0.9,8.7,0.2V135
		c-23.4-8.2-40.5-30.6-40.5-56.9c0-33.3,27.3-60.9,60.7-60.9c33.3,0,60.7,27.6,60.7,60.9C136.6,104.4,119.5,126.8,96.1,135L96.1,135
		z"/>
</g>
</svg>
