<?xml version="1.0" encoding="utf-8"?>
<!-- Generator: Adobe Illustrator 22.1.0, SVG Export Plug-In . SVG Version: 6.00 Build 0)  -->
<svg version="1.1" id="Laag_1" xmlns="http://www.w3.org/2000/svg" xmlns:xlink="http://www.w3.org/1999/xlink" x="0px" y="0px"
	 viewBox="0 0 150 150" style="enable-background:new 0 0 150 150;" xml:space="preserve">
<g>
	<g>
		<path d="M147.3,21.9L128.5,3.1c-2.7-2.7-7.2-2.7-10,0L83,38.6c-0.9,0.9-0.9,2.3,0,3.2c0.9,0.9,2.3,0.9,3.2,0l35.5-35.5
			c0.5-0.5,1.1-0.7,1.8-0.7c0.7,0,1.3,0.3,1.8,0.7l18.9,18.9c0.5,0.5,0.7,1.1,0.7,1.8c0,0.7-0.3,1.3-0.7,1.8l-4.6,4.6l-12.1-12.1
			c-0.9-0.9-2.3-0.9-3.2,0c-0.9,0.9-0.9,2.3,0,3.2l12.1,12.1l-5.3,5.3l-5.3-5.3c-0.9-0.9-2.3-0.9-3.2,0c-0.9,0.9-0.9,2.3,0,3.2
			l5.3,5.3l-5.3,5.3l-5.3-5.3c-0.9-0.9-2.3-0.9-3.2,0c-0.9,0.9-0.9,2.3,0,3.2l5.3,5.3l-5.3,5.3l-12.1-12.1c-0.9-0.9-2.3-0.9-3.2,0
			c-0.9,0.9-0.9,2.3,0,3.2L110.8,62l-5.3,5.3l-5.3-5.3c-0.9-0.9-2.3-0.9-3.2,0c-0.9,0.9-0.9,2.3,0,3.2l5.3,5.3L97.8,75L75.4,52.6
			l4.2-4.2c0.9-0.9,0.9-2.3,0-3.2c-0.9-0.9-2.3-0.9-3.2,0l-4.2,4.2l-42-42c-2.9-2.9-6.8-4.5-10.9-4.5c-4.1,0-8,1.6-10.9,4.5
			c-2.9,2.9-4.5,6.8-4.5,10.9c0,4.1,1.6,8,4.5,10.9l42,42L4,117.6c-2.7,2.7-2.7,7.2,0,10l18.9,18.9c1.3,1.3,3.1,2.1,5,2.1
			c1.9,0,3.7-0.7,5-2.1l46.3-46.3l3.3,3.3c0.9,0.9,2.3,0.9,3.2,0c0.9-0.9,0.9-2.3,0-3.2l-4.6-4.6c-0.1-0.1-0.2-0.3-0.3-0.4
			c-0.1-0.1-0.3-0.2-0.4-0.3L31.1,45.6l6.1-6.1l3.8,3.8c0.4,0.4,1,0.7,1.6,0.7c0.6,0,1.2-0.2,1.6-0.7c0.9-0.9,0.9-2.3,0-3.2
			l-3.8-3.8l6.1-6.1l24.1,24.1c0,0,0,0,0,0c0,0,0,0,0,0l25.4,25.4c0.1,0.1,0.1,0.2,0.2,0.2c0.1,0.1,0.2,0.1,0.2,0.2l33.8,33.8
			l-6.1,6.1L90,85.9c0,0,0,0-0.1-0.1L76.3,72.2c0,0,0,0-0.1-0.1l-24-24c-0.9-0.9-2.3-0.9-3.2,0c-0.9,0.9-0.9,2.3,0,3.2l71.8,71.8
			l-6.1,6.1l-21.6-21.6c-0.9-0.9-2.3-0.9-3.2,0c-0.9,0.9-0.9,2.3,0,3.2l23.2,23.2c0.2,0.2,0.5,0.4,0.8,0.5l27.5,10.7
			c0.4,0.2,0.9,0.2,1.3,0.2c1,0,1.9-0.4,2.6-1.1c1-1,1.4-2.6,0.8-3.9L135.5,113c-0.1-0.3-0.3-0.6-0.5-0.8l-34-34l46.3-46.3
			C150.1,29.2,150.1,24.7,147.3,21.9L147.3,21.9z M75.9,96.9l-4.5,4.5L66.1,96c-0.9-0.9-2.3-0.9-3.2,0c-0.9,0.9-0.9,2.3,0,3.2
			l5.3,5.3l-5.3,5.3L50.8,97.7c-0.9-0.9-2.3-0.9-3.2,0c-0.9,0.9-0.9,2.3,0,3.2l12.1,12.1l-5.3,5.3l-5.3-5.3c-0.9-0.9-2.3-0.9-3.2,0
			c-0.9,0.9-0.9,2.3,0,3.2l5.3,5.3l-5.3,5.3l-5.3-5.3c-0.9-0.9-2.3-0.9-3.2,0c-0.9,0.9-0.9,2.3,0,3.2l5.3,5.3l-5.3,5.3l-12.1-12.1
			c-0.9-0.9-2.3-0.9-3.2,0c-0.9,0.9-0.9,2.3,0,3.2l12.1,12.1l-4.6,4.6c-0.5,0.5-1.1,0.7-1.8,0.7c-0.7,0-1.3-0.3-1.8-0.7L7.2,124.4
			c-1-1-1-2.6,0-3.5l46.3-46.3L75.9,96.9z M11.5,26.1c-4.3-4.3-4.3-11.2,0-15.4c4.3-4.3,11.2-4.3,15.4,0l7.2,7.2L18.7,33.3
			L11.5,26.1z M35.5,34.7C35.5,34.7,35.5,34.7,35.5,34.7C35.5,34.7,35.5,34.7,35.5,34.7l-7.7,7.7l-5.9-5.9l15.4-15.4l5.9,5.9
			L35.5,34.7z M141.2,140.4l-22.4-8.7l13.7-13.7L141.2,140.4z M141.2,140.4"/>
	</g>
</g>
</svg>
