<?xml version="1.0" encoding="utf-8"?>
<!-- Generator: Adobe Illustrator 22.1.0, SVG Export Plug-In . SVG Version: 6.00 Build 0)  -->
<svg version="1.1" id="Laag_1" xmlns="http://www.w3.org/2000/svg" xmlns:xlink="http://www.w3.org/1999/xlink" x="0px" y="0px"
	 viewBox="0 0 150 150" style="enable-background:new 0 0 150 150;" xml:space="preserve">
<g>
	<path d="M131.8,3.5c-8.5,0-15.5,6.9-15.5,15.5c0,2.7,0.7,5.2,1.9,7.4L92.9,51.7c-3.5-2.7-7.9-4.4-12.6-4.4c-4.8,0-9.1,1.6-12.6,4.3
		L47.9,31.9c0.9-1.5,1.5-3.3,1.5-5.2c0-5.7-4.6-10.3-10.3-10.3c-5.7,0-10.3,4.6-10.3,10.3C28.7,32.4,33.4,37,39,37
		c1.9,0,3.7-0.6,5.2-1.5L64,55.3c-2.7,3.5-4.4,7.9-4.4,12.6c0,4.8,1.6,9.1,4.4,12.6l-32.6,32.6c-2.7-2.5-6.4-4-10.4-4
		c-8.5,0-15.5,6.9-15.5,15.5c0,8.5,6.9,15.4,15.5,15.4c8.5,0,15.5-6.9,15.5-15.4c0-2.7-0.7-5.2-1.9-7.4l33-33.1
		c2.9,2.2,6.3,3.7,10.1,4.2v26.2c-7.3,1.2-12.9,7.6-12.9,15.2c0,8.5,6.9,15.5,15.4,15.5c8.5,0,15.5-6.9,15.5-15.5
		c0-7.6-5.6-14-12.9-15.2V88.3c3.8-0.5,7.2-2,10.1-4.2l19.8,19.8c-0.9,1.5-1.5,3.3-1.5,5.2c0,5.7,4.6,10.3,10.3,10.3
		c5.7,0,10.3-4.6,10.3-10.3c0-5.7-4.6-10.3-10.3-10.3c-1.9,0-3.7,0.6-5.2,1.5L96.5,80.5c2.7-3.5,4.4-7.9,4.4-12.6
		c0-4.8-1.6-9.1-4.4-12.6l24.9-24.9c2.7,2.5,6.4,4,10.4,4c8.5,0,15.5-6.9,15.5-15.5C147.2,10.4,140.3,3.5,131.8,3.5L131.8,3.5z
		 M33.9,26.7c0-2.8,2.3-5.1,5.1-5.1c2.8,0,5.2,2.3,5.2,5.1c0,2.8-2.3,5.2-5.2,5.2C36.2,31.8,33.9,29.5,33.9,26.7L33.9,26.7z
		 M21,134.9c-5.7,0-10.3-4.6-10.3-10.3c0-5.7,4.6-10.3,10.3-10.3c5.7,0,10.3,4.6,10.3,10.3C31.3,130.3,26.7,134.9,21,134.9L21,134.9
		z M90.6,129.8c0,5.7-4.6,10.3-10.3,10.3c-5.7,0-10.3-4.6-10.3-10.3c0-5.7,4.6-10.3,10.3-10.3C85.9,119.4,90.6,124.1,90.6,129.8
		L90.6,129.8z M80.3,83.4c-8.5,0-15.5-6.9-15.5-15.5c0-8.5,6.9-15.5,15.5-15.5c8.5,0,15.5,6.9,15.5,15.5
		C95.7,76.4,88.8,83.4,80.3,83.4L80.3,83.4z M126.6,109.1c0,2.8-2.3,5.1-5.2,5.1c-2.8,0-5.2-2.3-5.2-5.1c0-2.8,2.3-5.2,5.2-5.2
		C124.3,104,126.6,106.3,126.6,109.1L126.6,109.1z M131.8,29.3c-5.7,0-10.3-4.6-10.3-10.3c0-5.7,4.6-10.3,10.3-10.3
		c5.7,0,10.3,4.6,10.3,10.3C142.1,24.6,137.5,29.3,131.8,29.3L131.8,29.3z M131.8,29.3"/>
</g>
</svg>
