<?xml version="1.0" encoding="utf-8"?>
<!-- Generator: Adobe Illustrator 22.1.0, SVG Export Plug-In . SVG Version: 6.00 Build 0)  -->
<svg version="1.1" id="Laag_1" xmlns="http://www.w3.org/2000/svg" xmlns:xlink="http://www.w3.org/1999/xlink" x="0px" y="0px"
	 viewBox="0 0 150 150" style="enable-background:new 0 0 150 150;" xml:space="preserve">
<style type="text/css">
	.st0{clip-path:url(#SVGID_2_);}
</style>
<g>
	<g>
		<defs>
			<rect id="SVGID_1_" x="11.8" y="6" width="125.6" height="140.5"/>
		</defs>
		<clipPath id="SVGID_2_">
			<use xlink:href="#SVGID_1_"  style="overflow:visible;"/>
		</clipPath>
		<path class="st0" d="M75.3,73.8l5.3-5.3c2,1.1,4.3,1.7,6.8,1.7c7.9,0,14.4-6.5,14.4-14.4c0-7.9-6.5-14.4-14.4-14.4
			c-7.9,0-14.4,6.5-14.4,14.4c0,2.5,0.6,4.8,1.7,6.8l-5.3,5.3L31.2,29.8c-0.8-0.8-1.8-1.2-3-1.2c-1.1,0-2.2,0.4-3,1.2
			c-8.8,8.8-12.3,21.8-9.9,36.5c1.7,10.4,6.4,20.8,13.3,30.2L12,140.8c-0.5,1.3-0.3,2.7,0.5,3.9c0.8,1.1,2.1,1.8,3.4,1.8h58.6
			c1.4,0,2.7-0.7,3.5-1.9c0.8-1.2,0.9-2.6,0.4-3.9l-5.6-13.8c1.4,0.3,2.9,0.6,4.3,0.9c3,0.5,6,0.8,8.9,0.8c11,0,20.6-3.7,27.6-10.7
			c0.8-0.8,1.2-1.8,1.2-3s-0.4-2.2-1.2-3L75.3,73.8z M87.4,49.7c3.3,0,6,2.7,6,6c0,3.3-2.7,6-6,6c-3.3,0-6.1-2.7-6.1-6
			C81.4,52.5,84.1,49.7,87.4,49.7L87.4,49.7z M78.4,119.5c-12.5-2.1-25-8.9-35.4-19.3C32.6,89.9,25.8,77.3,23.7,64.8
			c-1.7-10.2,0-19.3,4.8-26l75.8,75.8C97.7,119.5,88.6,121.2,78.4,119.5L78.4,119.5z M68.3,138.1H22l12.9-34.2
			c0.7,0.8,1.5,1.5,2.2,2.3c7.5,7.5,16.2,13.4,25.2,17.3L68.3,138.1z M68.3,138.1"/>
	</g>
	<path d="M87.4,23.8c-2.3,0-4.2,1.9-4.2,4.2c0,2.3,1.9,4.2,4.2,4.2c13,0,23.6,10.6,23.6,23.6c0,2.3,1.9,4.2,4.2,4.2
		c2.3,0,4.2-1.9,4.2-4.2C119.4,38.2,105.1,23.8,87.4,23.8L87.4,23.8z M87.4,23.8"/>
	<path d="M87.4,6c-2.3,0-4.2,1.9-4.2,4.2c0,2.3,1.9,4.2,4.2,4.2c22.8,0,41.4,18.6,41.4,41.4c0,2.3,1.9,4.2,4.2,4.2
		c2.3,0,4.2-1.9,4.2-4.2C137.2,28.3,114.9,6,87.4,6L87.4,6z M87.4,6"/>
</g>
</svg>
