<?xml version="1.0" encoding="UTF-8"?>
<svg width="74px" height="71px" viewBox="0 0 74 71" version="1.1" xmlns="http://www.w3.org/2000/svg" xmlns:xlink="http://www.w3.org/1999/xlink">
    <!-- Generator: Sketch 50.2 (55047) - http://www.bohemiancoding.com/sketch -->
    <title>design</title>
    <desc>Created with Sketch.</desc>
    <defs></defs>
    <g id="Mobile" stroke="none" stroke-width="1" fill="none" fill-rule="evenodd">
        <g id="Mobile-home" transform="translate(-190.000000, -467.000000)">
            <g id="design" transform="translate(228.500000, 504.500000) rotate(12.000000) translate(-228.500000, -504.500000) translate(199.000000, 465.000000)">
                <path d="M0,78.5108766 L1.23474119,56.5433699 L39.14626,1.60440152 C40.304424,-0.0741856941 42.6344831,-0.506032295 44.3239343,0.644684104 L56.8678063,9.1897897 C58.5572576,10.3405061 58.9918991,12.6561064 57.8337352,14.3346936 L19.9222164,69.273662 L0,78.5108766 Z" id="Fill-1" fill="#E7F5FF"></path>
                <path d="M36.8520441,4.99747191 L39.2134595,1.59143637 C40.3675901,-0.0735862003 42.6895346,-0.501943054 44.3736285,0.639474419 L56.8732892,9.11552711 C58.5573831,10.2569446 58.9899847,12.5538325 57.8358541,14.2188551 L55.4744387,17.6248907 L36.8520441,4.99747191 Z" id="Fill-3" fill="#FFFFFF"></path>
                <path d="M0.801131394,68.5545828 L1.391545,56.3017968 C2.41278673,56.9959421 4.27619737,55.657793 5.10572585,56.221884 C5.93578101,56.7859749 5.73142733,59.2523057 7.00811116,60.120379 C8.28426831,60.9884522 11.041463,60.2572232 11.935247,60.8651879 C12.8285043,61.4726302 13.1350348,64.2862948 14.1562766,64.98044 C15.1775183,65.6751076 18.1896284,65.1178066 18.7005126,65.4646181 C19.2108701,65.8124741 18.751601,68.1053993 20.0282848,68.9729502 L8.07464778,74.5052196 L0.801131394,68.5545828 Z" id="Fill-5" fill="#FFFFFF"></path>
                <path d="M16.1430349,71.0257104 L0,78.5108766 L1.23474386,56.5433699 L39.1458166,1.60440152 C40.3045112,-0.0741856941 42.6345753,-0.506032295 44.3240303,0.644684104 L56.8679294,9.1897897 C58.5573843,10.3405061 58.9920268,12.6555817 57.8333322,14.3341689 L22.0284008,66.2213514" id="Stroke-7" stroke="#0097FF" stroke-width="2" stroke-linecap="round"></path>
                <path d="M0.801131394,68.8972999 L6.40905115,73.7040882" id="Stroke-9" stroke="#0097FF" stroke-width="2" stroke-linecap="round"></path>
                <path d="M1.60226279,56.2906878 C2.62303064,56.950191 4.48557662,55.6788237 5.31472018,56.2147631 C6.14439019,56.7507025 5.94013133,59.0939486 7.21622275,59.919196 C8.49178774,60.743451 11.247703,60.0492109 12.1410723,60.6263383 C13.0339151,61.2034656 13.3403034,63.8772077 14.3610713,64.5367109 C14.8717184,64.8667106 15.8793253,64.8989662 16.8237593,64.8905302" id="Stroke-11" stroke="#0097FF" stroke-width="2" stroke-linecap="round"></path>
                <path d="M37.6531755,5.60791976 L51.2724092,14.4203651" id="Stroke-13" stroke="#0097FF" stroke-width="2" stroke-linecap="round"></path>
                <path d="M8.01131394,52.874672 L39.2554383,7.21018254" id="Stroke-15" stroke="#0097FF" stroke-width="2" stroke-linecap="round"></path>
                <path d="M14.4203651,57.6814603 L45.6644894,12.0169709" id="Stroke-17" stroke="#0097FF" stroke-width="2" stroke-linecap="round"></path>
            </g>
        </g>
    </g>
</svg>