<?xml version="1.0" encoding="utf-8"?>
<!-- Generator: Adobe Illustrator 22.1.0, SVG Export Plug-In . SVG Version: 6.00 Build 0)  -->
<svg version="1.1" id="Laag_1" xmlns="http://www.w3.org/2000/svg" xmlns:xlink="http://www.w3.org/1999/xlink" x="0px" y="0px"
	 viewBox="0 0 150 150" style="enable-background:new 0 0 150 150;" xml:space="preserve">
<style type="text/css">
	.st0{fill:#7B7B7B;}
</style>
<g>
	<path class="st0" d="M142.5,76.5c0-37.3-30.3-67.6-67.6-67.6C37.6,8.9,7.3,39.2,7.3,76.5c0,37.3,30.3,67.6,67.6,67.6
		C112.3,144.1,142.5,113.8,142.5,76.5L142.5,76.5z M13.5,76.5C13.5,42.6,41,15,74.9,15c33.9,0,61.5,27.5,61.5,61.5
		c0,33.9-27.5,61.5-61.5,61.5C41,138,13.5,110.4,13.5,76.5L13.5,76.5z M13.5,76.5"/>
	<path class="st0" d="M77.5,115.5v-39h12.9l2-12.9H77.5v-6.5c0-3.4,1.1-6.6,5.9-6.6h9.7V37.6H79.4c-11.6,0-14.7,7.6-14.7,18.2v7.8
		h-7.9v12.9h7.9v39H77.5z M77.5,115.5"/>
</g>
</svg>
