<?xml version="1.0" encoding="utf-8"?>
<!-- Generator: Adobe Illustrator 22.1.0, SVG Export Plug-In . SVG Version: 6.00 Build 0)  -->
<svg version="1.1" id="Laag_1" xmlns="http://www.w3.org/2000/svg" xmlns:xlink="http://www.w3.org/1999/xlink" x="0px" y="0px"
	 viewBox="0 0 150 150" style="enable-background:new 0 0 150 150;" xml:space="preserve">
<style type="text/css">
	.st0{clip-path:url(#SVGID_2_);}
</style>
<g>
	<g>
		<defs>
			<rect id="SVGID_1_" x="7.2" y="9.1" width="133.5" height="133.8"/>
		</defs>
		<clipPath id="SVGID_2_">
			<use xlink:href="#SVGID_1_"  style="overflow:visible;"/>
		</clipPath>
		<path class="st0" d="M140.5,89.1c0-17.7-7.3-40.8-27.6-49.1v-8.9l6-4.8c0.5-0.4,0.9-1.1,0.9-1.8V11.7c0-1.3-1-2.3-2.3-2.3h-6.9
			c-0.6,0-1.2,0.2-1.6,0.7l-3,3l-3-3c-0.4-0.4-1-0.7-1.6-0.7h-9.2c-0.6,0-1.2,0.2-1.6,0.7l-3,3l-3-3c-0.4-0.4-1-0.7-1.6-0.7h-6.9
			c-1.3,0-2.3,1-2.3,2.3v12.9c0,0.7,0.3,1.4,0.9,1.8l6,4.8V40c-20.3,8.3-27.6,31.4-27.6,49.1c0,4.1,0.6,8.3,1.9,12.2
			c-1-0.1-2-0.1-3-0.1h-5.8c0-1.3-1-2.3-2.3-2.3H25.6c-1.3,0-2.3,1-2.3,2.3H7.2v4.6h16.1v23H7.2v4.6h16.1c0,1.3,1,2.3,2.3,2.3H44
			c1.3,0,2.3-1,2.3-2.3v-0.9l17.1,7.1c9.3,3.8,19.8,3.9,29.2,0.3l35.5-13.5c2.1-0.8,3.8-2.4,4.7-4.5c1.4-3.1,0.8-6.7-1.5-9.2
			C137.5,106.5,140.8,98,140.5,89.1L140.5,89.1z M41.7,131.1H27.9v-27.6h13.8V131.1z M78.4,23.4V14h3.6l3.9,3.9
			c0.9,0.9,2.4,0.9,3.2,0l3.9-3.9h7.3l3.9,3.9c0.9,0.9,2.4,0.9,3.2,0l3.9-3.9h3.6v9.5l-5.4,4.3h-26L78.4,23.4z M108.3,32.4v6.9h-23
			v-6.9H108.3z M128.6,120.1c-0.4,0.9-1.2,1.7-2.1,2L91,135.7c-8.3,3.2-17.6,3.1-25.8-0.3l-18.9-7.9v-21.7h5.8
			c7.6,0,15.1,1.8,21.9,5.2c2.3,1.1,4.7,1.7,7.2,1.7h17.8c1.9,0,3.4,1.6,3.4,3.5c0,1.6-1.1,3-2.7,3.3c-0.3,0-0.6,0.1-0.9,0.1H71.6
			v4.6h27.6c0,0,0.1,0,0.1,0c1.8,0,3.6-0.4,5.3-1.1l19.2-8.2c0.9-0.4,2-0.4,2.9,0c1,0.4,1.7,1.2,2.1,2.1
			C129.1,118.1,129.1,119.2,128.6,120.1L128.6,120.1z M127.3,110.4c-1.8-0.5-3.6-0.3-5.3,0.4l-14.9,6.3c0-0.3,0.1-0.6,0.1-0.8
			c0-4.4-3.6-8-8-8H81.3c-1.8,0-3.6-0.4-5.2-1.2c-5-2.5-10.3-4.2-15.8-5c-1.7-4-2.6-8.4-2.5-12.8c0-16.5,6.8-38.2,25.7-45.3h26.6
			c19,7.1,25.7,28.8,25.7,45.3C136.3,97.1,133.1,104.9,127.3,110.4L127.3,110.4z M127.3,110.4"/>
	</g>
	<rect x="32.5" y="121.9" width="4.6" height="4.6"/>
	<path d="M101.7,75.2l-8.3-2.8c-0.9-0.3-1.4-1.3-1.1-2.2c0.2-0.7,0.9-1.2,1.6-1.2h5.8c0.9,0,1.7,0.8,1.7,1.7v1.5h4.6v-1.5
		c0-3.5-2.8-6.3-6.3-6.3h-0.6v-4.6h-4.6v4.6h-0.6c-3.5,0-6.3,2.8-6.3,6.3c0,2.7,1.7,5.1,4.3,6l8.3,2.8c0.9,0.3,1.4,1.3,1.1,2.2
		c-0.2,0.7-0.9,1.2-1.6,1.2h-5.8c-0.9,0-1.7-0.8-1.7-1.7v-1.5h-4.6v1.5c0,3.5,2.8,6.3,6.3,6.3h0.6v4.6h4.6v-4.6h0.6
		c3.5,0,6.3-2.8,6.3-6.3C106,78.5,104.3,76.1,101.7,75.2L101.7,75.2z M101.7,75.2"/>
	<path d="M96.8,50.7c-14,0-25.3,11.3-25.3,25.3c0,13.9,11.3,25.2,25.3,25.3c14,0,25.3-11.3,25.3-25.3C122.1,62,110.8,50.7,96.8,50.7
		L96.8,50.7z M96.8,96.7c-11.4,0-20.7-9.3-20.7-20.7c0-11.4,9.3-20.7,20.7-20.7c11.4,0,20.7,9.3,20.7,20.7
		C117.5,87.4,108.2,96.7,96.8,96.7L96.8,96.7z M96.8,96.7"/>
</g>
</svg>
