<?xml version="1.0" encoding="utf-8"?>
<!-- Generator: Adobe Illustrator 22.1.0, SVG Export Plug-In . SVG Version: 6.00 Build 0)  -->
<svg version="1.1" id="Laag_1" xmlns="http://www.w3.org/2000/svg" xmlns:xlink="http://www.w3.org/1999/xlink" x="0px" y="0px"
	 viewBox="0 0 150 150" style="enable-background:new 0 0 150 150;" xml:space="preserve">
<style type="text/css">
	.st0{fill:#CECECE;}
</style>
<path class="st0" d="M115.1,18H31.9C19.5,18,9.5,28,9.5,40.4v51.3c0,12.4,10.1,22.5,22.5,22.5h53l25.4,25.4c0.9,0.9,2,1.3,3.2,1.3
	c0.6,0,1.2-0.1,1.7-0.3c1.7-0.7,2.8-2.3,2.8-4.1V114c11.1-1.4,19.6-10.9,19.6-22.3V40.4C137.6,28,127.5,18,115.1,18L115.1,18z
	 M128.6,91.7c0,7.4-6,13.5-13.5,13.5h-1.7c-2.5,0-4.5,2-4.5,4.5v15.8l-19-19c-0.8-0.8-2-1.3-3.2-1.3H31.9c-7.4,0-13.5-6-13.5-13.5
	V40.4c0-7.4,6-13.5,13.5-13.5h83.2c7.4,0,13.5,6,13.5,13.5V91.7z M128.6,91.7"/>
</svg>
