<?xml version="1.0" encoding="utf-8"?>
<!-- Generator: Adobe Illustrator 22.1.0, SVG Export Plug-In . SVG Version: 6.00 Build 0)  -->
<svg version="1.1" id="Laag_1" xmlns="http://www.w3.org/2000/svg" xmlns:xlink="http://www.w3.org/1999/xlink" x="0px" y="0px"
	 viewBox="0 0 150 150" style="enable-background:new 0 0 150 150;" xml:space="preserve">
<style type="text/css">
	.st0{fill:#CDCDD4;}
</style>
<g>
	<path class="st0" d="M75,28.8c-15.9,0-28.9,13-28.9,28.9c0,15.9,13,28.9,28.9,28.9c15.9,0,28.9-13,28.9-28.9
		C103.9,41.8,90.9,28.8,75,28.8L75,28.8z M75,78.8c-11.7,0-21.1-9.5-21.1-21.1c0-11.7,9.5-21.1,21.1-21.1c11.7,0,21.1,9.5,21.1,21.1
		C96.1,69.4,86.7,78.8,75,78.8L75,78.8z M75,78.8"/>
	<path class="st0" d="M75,8.7c-27,0-49,22-49,49C26,73.3,39,96.5,46.8,109c5.1,8.2,10.6,16,15.5,22c7.8,9.6,10.6,10.4,12.6,10.4
		c2,0,4.7-0.8,12.5-10.4c4.9-6,10.4-13.8,15.5-22c7.9-12.5,21-35.8,21-51.3C124,30.7,102,8.7,75,8.7L75,8.7z M97.6,102.9
		c-10.1,16.3-19.3,27.4-22.7,30.2c-3.4-2.7-12.5-13.5-22.7-30.1C40.5,83.8,33.7,67.3,33.7,57.7c0-22.8,18.5-41.3,41.3-41.3
		c22.8,0,41.3,18.5,41.3,41.3C116.3,67.2,109.5,83.7,97.6,102.9L97.6,102.9z M97.6,102.9"/>
</g>
</svg>
