<?xml version="1.0" encoding="utf-8"?>
<!-- Generator: Adobe Illustrator 22.1.0, SVG Export Plug-In . SVG Version: 6.00 Build 0)  -->
<svg version="1.1" id="Laag_1" xmlns="http://www.w3.org/2000/svg" xmlns:xlink="http://www.w3.org/1999/xlink" x="0px" y="0px"
	 viewBox="0 0 150 150" style="enable-background:new 0 0 150 150;" xml:space="preserve">
<style type="text/css">
	.st0{fill:#787C82;}
</style>
<g>
	<path class="st0" d="M105.8,62.4c0-0.7,0-1.4,0-2.1c3-2.2,5.6-5,7.6-8.2c-2.7,1.2-5.7,2.1-8.8,2.4c3.2-1.9,5.6-5.1,6.7-8.8
		c-3,1.8-6.2,3.1-9.7,3.7c-2.8-3.2-6.8-5.2-11.2-5.3C82,44,75.1,51.1,75.1,60c0,1.3,0.1,2.5,0.4,3.7c-12.7-0.8-24-7.4-31.5-17.4
		c-1.3,2.4-2.1,5.2-2.1,8.2c0,5.7,2.7,10.7,6.8,13.7c-2.5-0.1-4.9-0.9-6.9-2.1v0.2c0,7.9,5.3,14.5,12.3,16.1c-1.3,0.4-2.6,0.6-4,0.5
		c-1,0-1.9-0.1-2.9-0.3c1.9,6.5,7.6,11.2,14.3,11.4c-5.2,4.3-11.8,6.9-19,6.9c-1.2,0-2.5-0.1-3.6-0.2c6.8,4.6,14.8,7.3,23.4,7.3
		C90.4,108.1,105.8,83.6,105.8,62.4L105.8,62.4z"/>
	<path class="st0" d="M145.3,76.1c0-38.2-31-69.2-69.2-69.2S6.9,37.9,6.9,76.1s31,69.2,69.2,69.2
		C114.3,145.3,145.3,114.3,145.3,76.1L145.3,76.1z M13.2,76.1c0-34.7,28.2-62.9,62.9-62.9S139,41.4,139,76.1S110.8,139,76.1,139
		S13.2,110.9,13.2,76.1L13.2,76.1z"/>
</g>
</svg>
